<svg width="129" height="24" viewBox="0 0 129 24" fill="none" xmlns="http://www.w3.org/2000/svg">
<g clip-path="url(#clip0_326_6377)">
<path d="M6.82145 17.7216C4.40693 21.7174 2.99523 23.0367 0.795898 23.6106V24.0001H6.75689C10.8457 24.0001 13.0364 22.3959 15.8727 17.7174L25.5954 1.67549C25.6707 1.54851 25.7105 1.40452 25.7107 1.2579C25.7109 1.11128 25.6716 0.967168 25.5967 0.83997C25.5217 0.712772 25.4138 0.606942 25.2837 0.533059C25.1535 0.459176 25.0057 0.419827 24.8551 0.418945H17.293L6.82145 17.7216Z" fill="white"/>
<path d="M0.477539 0.418945V0.812663C2.19913 1.44093 3.65817 2.69329 4.57061 5.76345L5.7499 9.50795C5.78415 9.61947 5.85106 9.71887 5.94243 9.79398C6.03381 9.86909 6.14569 9.91666 6.2644 9.93088C6.38312 9.9451 6.50351 9.92535 6.61087 9.87404C6.71824 9.82273 6.80791 9.74209 6.86893 9.64198L11.7367 1.67549C11.8119 1.54882 11.8516 1.40521 11.8521 1.25894C11.8525 1.11267 11.8135 0.968838 11.7391 0.841761C11.6647 0.714684 11.5574 0.608789 11.4278 0.534609C11.2983 0.46043 11.151 0.420553 11.0007 0.418945H0.477539Z" fill="white"/>
<path d="M46.461 0.418639H38.9506V13.9977C38.9506 18.0019 36.5791 20.6071 33.1919 21.1181V21.5076H39.6435C41.6891 21.5076 43.6508 20.7169 45.0973 19.3093C46.5437 17.9017 47.3563 15.9925 47.3563 14.0019V1.25634C47.3563 1.14345 47.333 1.03171 47.2876 0.92783C47.2422 0.823949 47.1757 0.730068 47.0921 0.651826C47.0085 0.573584 46.9095 0.512596 46.801 0.472524C46.6926 0.432452 46.5769 0.414124 46.461 0.418639Z" fill="white"/>
<path d="M33.7556 0.41904H26.6196V0.812757C26.6952 0.812755 26.77 0.827301 26.8397 0.855558C26.9094 0.883815 26.9727 0.925223 27.0259 0.977396C27.0791 1.02957 27.1212 1.09148 27.1497 1.15955C27.1782 1.22762 27.1926 1.30051 27.1921 1.37401V14.0525C27.1884 14.5278 27.2809 14.9991 27.4644 15.4395C27.6479 15.8799 27.9187 16.2809 28.2614 16.6194C28.6041 16.958 29.012 17.2276 29.4618 17.4127C29.9115 17.5979 30.3944 17.695 30.8827 17.6986C31.371 17.7022 31.8553 17.6121 32.3079 17.4336C32.7605 17.255 33.1725 16.9914 33.5204 16.6579C33.8683 16.3244 34.1453 15.9275 34.3355 15.4898C34.5258 15.0521 34.6256 14.5822 34.6293 14.107V1.25674C34.6293 1.14566 34.6066 1.0357 34.5626 0.933234C34.5185 0.830773 34.4539 0.737862 34.3726 0.659908C34.2913 0.581954 34.1949 0.520514 34.089 0.479162C33.9831 0.437811 33.8697 0.417373 33.7556 0.41904Z" fill="white"/>
<path d="M63.6038 0.770894C64.0902 0.770894 64.3054 1.02639 64.3054 1.54157V1.88503H61.2194C60.812 1.40199 60.2946 1.018 59.7081 0.76353C59.1216 0.509061 58.4823 0.391118 57.8408 0.419062C55.4693 0.419062 53.8252 1.91435 53.8252 3.76985C53.8252 5.62534 55.4693 7.12063 57.8408 7.12063C58.4723 7.13807 59.0996 7.01553 59.6752 6.76228C60.2508 6.50904 60.7597 6.13171 61.1635 5.65885H64.2881V7.14576H66.6812V0.419062H63.5866L63.6038 0.770894ZM57.8408 5.88503C56.782 5.88503 56.1924 4.86304 56.1924 3.75728C56.1924 2.65152 56.7992 1.6421 57.8408 1.6421C58.8824 1.6421 59.4892 2.65571 59.4892 3.75728C59.4892 4.85885 58.8996 5.88503 57.8408 5.88503ZM64.2967 4.44838H61.766C61.823 4.2165 61.8519 3.97894 61.8521 3.74053C61.8495 3.52371 61.825 3.30766 61.7789 3.0955H64.2967V4.44838ZM62.0716 7.41801C59.3429 7.41801 57.574 8.9133 57.574 10.7688C57.574 12.6243 59.3429 14.1196 62.0716 14.1196C64.8003 14.1196 66.5736 12.6034 66.5736 10.7688C66.5736 8.93425 64.8046 7.41801 62.0716 7.41801ZM62.0716 12.9133C61.7893 12.9114 61.5102 12.8539 61.2513 12.7444C60.9923 12.6349 60.7588 12.4757 60.5646 12.2762C60.3705 12.0767 60.2197 11.8411 60.1215 11.5835C60.0232 11.3259 59.9794 11.0516 59.9928 10.7772C59.98 10.5035 60.0243 10.2301 60.1231 9.97356C60.222 9.71702 60.3732 9.48262 60.5677 9.28454C60.7622 9.08646 60.9959 8.9288 61.2548 8.82108C61.5136 8.71336 61.7922 8.65783 62.0738 8.65783C62.3553 8.65783 62.6339 8.71336 62.8927 8.82108C63.1516 8.9288 63.3853 9.08646 63.5798 9.28454C63.7743 9.48262 63.9255 9.71702 64.0244 9.97356C64.1232 10.2301 64.1675 10.5035 64.1547 10.7772C64.1675 11.0518 64.1231 11.3262 64.0244 11.5838C63.9256 11.8414 63.7745 12.077 63.58 12.2764C63.3855 12.4758 63.1517 12.635 62.8925 12.7445C62.6333 12.8539 62.3541 12.9113 62.0716 12.9133Z" fill="white"/>
<path d="M71.2261 8.268C71.7124 8.268 71.9233 8.5235 71.9233 9.03868V12.1926C71.9233 12.5659 72.0757 12.9238 72.3469 13.1877C72.6181 13.4517 72.9859 13.5999 73.3694 13.5999H81.2328V7.89941H71.2261V8.268ZM74.3206 9.12664H78.8355V12.3727H74.3206V9.12664Z" fill="white"/>
<path d="M83.3676 2.70167H81.2156V0.418945H78.1211V0.787532C78.6074 0.787532 78.8183 1.04303 78.8183 1.55821V5.06397H72.0955V0.728893H69.001V1.09748C69.4873 1.09748 69.6982 1.35298 69.6982 1.87235V4.86711C69.6971 5.05263 69.7336 5.23653 69.8058 5.40825C69.878 5.57996 69.9843 5.73609 70.1187 5.86767C70.2531 5.99924 70.4129 6.10365 70.5889 6.1749C70.765 6.24615 70.9537 6.28282 71.1444 6.28282H78.8355V7.15402H81.2329V3.92889H83.3848L83.3676 2.70167Z" fill="white"/>
<path d="M101.677 9.83465H109.82V13.6001H112.217V8.60742H101.677V9.83465Z" fill="white"/>
<path d="M108.047 4.66597C108.044 3.95323 107.759 3.26897 107.25 2.75602H108.542V1.57487H105.529V0H102.434V0.368586C102.921 0.368586 103.136 0.624084 103.136 1.13927V1.55812H100.097V2.75602H101.444C100.934 3.268 100.649 3.95289 100.648 4.66597C100.648 6.34136 102.163 7.69005 104.345 7.69005C106.527 7.69005 108.047 6.3288 108.047 4.66597ZM102.921 4.66597C102.921 3.66073 103.424 2.88168 104.345 2.88168C105.266 2.88168 105.77 3.66073 105.77 4.66597C105.77 5.6712 105.283 6.46283 104.345 6.46283C103.407 6.46283 102.912 5.68796 102.912 4.68272L102.921 4.66597Z" fill="white"/>
<path d="M114.356 3.31319H112.204V0.418945H109.11V0.787532C109.596 0.787532 109.807 1.04303 109.807 1.55821V7.73203H112.204V4.54041H114.356V3.31319Z" fill="white"/>
<path d="M94.5492 0.418945V0.787532C95.0355 0.787532 95.2507 1.04303 95.2507 1.55821V3.98334H93.9595V0.418945H91.0199V0.787532C91.5063 0.787532 91.7215 1.04303 91.7215 1.55821V7.95821H87.5897V2.19905H90.3184V0.971825H84.4951V1.34041C84.9815 1.34041 85.1924 1.59591 85.1924 2.11109V7.75717C85.1924 8.13041 85.3447 8.48837 85.6159 8.7523C85.8871 9.01622 86.255 9.16449 86.6385 9.16449H91.7215V13.6001H93.9595V5.22313H95.2507V13.6001H97.5146V0.418945H94.5492Z" fill="white"/>
<path d="M124.901 10.3329H127.26V0.97168H116.461V2.1989H124.901V10.3329Z" fill="white"/>
<path d="M123.489 11.4512V5.6543H120.558V6.01869C121.044 6.01869 121.255 6.27419 121.255 6.79356V11.4512H119.697V5.6543H116.758V6.01869C117.248 6.01869 117.459 6.27419 117.459 6.79356V11.4512H114.963V12.6742H128.477V11.4512H123.489Z" fill="white"/>
<path d="M111.649 20.6871C111.335 20.8846 110.968 20.9867 110.594 20.9803C109.665 20.9803 109.394 20.3018 109.368 19.552H111.787V19.3426C111.787 18.5552 111.52 17.4871 110.25 17.4829C109.049 17.4829 108.442 18.4546 108.442 19.5143C108.442 20.6536 109.127 21.6086 110.418 21.6086C110.854 21.6253 111.284 21.5096 111.649 21.2777V20.6871ZM109.424 19.0368C109.484 18.4169 109.682 17.9939 110.216 17.9939C110.646 17.9939 110.857 18.2913 110.866 19.0368H109.424Z" fill="white"/>
<path d="M114.963 17.5039C114.739 17.5041 114.518 17.5585 114.32 17.6623C114.123 17.7661 113.955 17.9161 113.831 18.0987V17.5919H112.381V18.1029H112.915V21.0348H112.381V21.5458H114.331V21.0222H113.805V18.7353C113.887 18.6043 113.999 18.4941 114.133 18.4139C114.267 18.3337 114.419 18.286 114.576 18.2746H114.696V18.6641H115.312V17.5919C115.202 17.5431 115.084 17.5133 114.963 17.5039Z" fill="white"/>
<path d="M115.845 20.3097H116.456V20.8082C116.564 20.9123 116.693 20.9937 116.834 21.047C116.976 21.1004 117.127 21.1246 117.278 21.1181C117.683 21.1181 117.958 20.9129 117.958 20.582C117.958 20.3642 117.795 20.1631 117.399 20.0124L117.033 19.8741C116.276 19.5935 115.862 19.0951 115.862 18.5548C115.862 17.9265 116.482 17.4825 117.291 17.4825C117.745 17.4786 118.191 17.5944 118.583 17.8176V18.6888H117.967V18.2113C117.781 18.0584 117.543 17.9805 117.3 17.9935C116.951 17.9935 116.719 18.1694 116.719 18.4375C116.719 18.7056 117.007 18.9401 117.507 19.1328L117.838 19.2668C118.445 19.5097 118.858 19.7946 118.858 20.3935C118.858 21.1474 118.273 21.6249 117.274 21.6249C116.779 21.6448 116.288 21.5287 115.858 21.2898L115.845 20.3097Z" fill="white"/>
<path d="M123.808 18.0818V17.5917H122.809V16.687L121.927 16.9006V17.5917H121.393V18.1027H121.927V20.2724C121.927 21.198 122.357 21.6252 123.11 21.6252C123.351 21.6214 123.588 21.5641 123.803 21.4577V20.9425C123.647 21.0263 123.47 21.0683 123.291 21.064C122.977 21.064 122.805 20.8001 122.805 20.3561V18.0818H123.808Z" fill="white"/>
<path d="M124.836 22.9362L125.994 21.4619L124.565 18.0818H124.229V17.5708H126.016V18.0818H125.534L126.498 20.3896L127.531 18.0818H127.066V17.5708H128.478V18.0818H128.133L125.908 22.9404L124.836 22.9362Z" fill="white"/>
<path d="M96.8863 16.1885H95.1174V16.7037H95.651V19.6859C95.651 20.6157 95.2938 21.1016 94.4976 21.1016C93.7013 21.1016 93.3398 20.6115 93.3441 19.6859V16.7037H93.8262V16.1885H91.8765V16.7037H92.4145V19.6859C92.4145 20.8586 93.0127 21.6167 94.3857 21.6167C95.7586 21.6167 96.3569 20.8628 96.3569 19.69V16.7037H96.8863V16.1885Z" fill="white"/>
<path d="M106.876 17.5708V18.0818H107.354L106.304 20.3855L105.327 18.0818H105.817V17.5708H104.031V18.0818H104.371L105.843 21.5331H106.351L107.939 18.0818H108.275V17.5708H106.876Z" fill="white"/>
<path d="M99.6192 21.5332V21.0222H100.149V18.8861C100.149 18.4673 100.041 18.1741 99.6321 18.1741C99.4228 18.1847 99.2182 18.2392 99.0325 18.3339C98.8468 18.4286 98.6843 18.5612 98.5561 18.7228V21.0222H99.0855V21.5332H97.1401V21.0222H97.6738V18.0903H97.1401V17.5919H98.5604V18.1322C98.7242 17.9444 98.9261 17.7916 99.1535 17.6835C99.3809 17.5753 99.6289 17.5142 99.8818 17.5039C100.682 17.5039 101.035 17.973 101.035 18.7981V21.0432H101.569V21.5542L99.6192 21.5332Z" fill="white"/>
<path d="M103.42 16.1885H102.533V17.0639H103.42V16.1885Z" fill="white"/>
<path d="M103.42 21.0221V17.5708H102V18.0818H102.533V21.0221H102V21.5331H103.945V21.0221H103.42Z" fill="white"/>
<path d="M120.704 16.1885H119.818V17.0639H120.704V16.1885Z" fill="white"/>
<path d="M120.704 21.0221V17.5708H119.284V18.0818H119.818V21.0221H119.284V21.5331H121.23V21.0221H120.704Z" fill="white"/>
<path d="M64.0472 17.5918V18.1028H64.5723V20.4065C64.4422 20.566 64.2793 20.6972 64.094 20.7917C63.9087 20.8862 63.705 20.9419 63.4963 20.9551C63.0659 20.9551 62.9755 20.641 62.9755 20.2431V17.5918H61.5552V18.1028H62.0889V20.3478C62.0889 21.1855 62.4418 21.6421 63.2466 21.6421C63.4995 21.6315 63.7473 21.5703 63.9747 21.4621C64.202 21.354 64.404 21.2014 64.568 21.0138V21.5541H65.9883V21.0222H65.4675V17.5918H64.0472Z" fill="white"/>
<path d="M68.8115 21.5332V21.0222H69.3409V18.8861C69.3409 18.4673 69.2333 18.1741 68.8244 18.1741C68.615 18.1847 68.4105 18.2392 68.2248 18.3339C68.039 18.4286 67.8766 18.5612 67.7484 18.7228V21.0222H68.2778V21.5332H66.3281V21.0222H66.8618V18.0903H66.3281V17.5919H67.7484V18.1322C67.9122 17.9444 68.1141 17.7916 68.3415 17.6835C68.5689 17.5753 68.8169 17.5142 69.0698 17.5039C69.8703 17.5039 70.2275 17.973 70.2232 18.7981V21.0432H70.7569V21.5542L68.8115 21.5332Z" fill="white"/>
<path d="M77.6221 21.5332V21.0222H78.1514V18.8861C78.1514 18.4673 78.0482 18.1741 77.635 18.1741C77.4256 18.1849 77.2212 18.2396 77.0355 18.3343C76.8498 18.4289 76.6873 18.5614 76.559 18.7228V21.0222H77.0884V21.5332H75.1387V21.0222H75.6724V18.0903H75.1387V17.5919H76.559V18.1322C76.7227 17.9444 76.9247 17.7916 77.1521 17.6835C77.3795 17.5753 77.6274 17.5142 77.8803 17.5039C78.6851 17.5039 79.0381 17.973 79.0381 18.7981V21.0432H79.5718V21.5542L77.6221 21.5332Z" fill="white"/>
<path d="M89.9054 21.0221V18.6933C89.9054 18.0357 89.6042 17.487 88.8036 17.4828C88.5352 17.4907 88.2725 17.5596 88.0363 17.684C87.8002 17.8083 87.5972 17.9847 87.4436 18.1991C87.3839 17.9806 87.2475 17.7893 87.058 17.6584C86.8685 17.5276 86.638 17.4655 86.4063 17.4828C86.158 17.492 85.9145 17.5524 85.6919 17.66C85.4693 17.7676 85.2727 17.9199 85.1151 18.1069V17.5917H83.6948V18.1027H84.2285V21.0347H83.6948V21.5457H85.6402V21.0221H85.1151V18.7226C85.2451 18.5661 85.4063 18.4368 85.589 18.3425C85.7717 18.2482 85.9721 18.1908 86.1782 18.1739C86.5182 18.1739 86.6086 18.3457 86.6086 18.7855V21.0221H86.0792V21.5331H88.0289V21.0221H87.4952V18.7226C87.6252 18.5661 87.7864 18.4368 87.9691 18.3425C88.1518 18.2482 88.3522 18.1908 88.5583 18.1739C88.8983 18.1739 88.9887 18.3457 88.9887 18.7855V21.0221H88.4937V21.5331H90.4305V21.0221H89.9054Z" fill="white"/>
<path d="M83.4363 20.9716C83.3668 21.0057 83.2904 21.0243 83.2125 21.026C83.0533 21.026 82.9199 20.892 82.9199 20.6072V18.7014C82.9199 17.9056 82.3517 17.4784 81.5555 17.4784C81.0424 17.4704 80.5358 17.5901 80.0835 17.826V18.6637H80.6431L80.6947 18.2449C80.7877 18.1607 80.8978 18.0964 81.0179 18.056C81.1379 18.0156 81.2654 18 81.3919 18.0103C81.8223 18.0103 82.016 18.224 82.0289 18.7559V19.1412H81.8611C80.742 19.1412 79.7866 19.6355 79.7866 20.4857C79.7771 20.6445 79.8031 20.8034 79.8627 20.9514C79.9223 21.0995 80.0142 21.2332 80.1319 21.3435C80.2497 21.4537 80.3906 21.5378 80.545 21.59C80.6993 21.6423 80.8635 21.6613 81.0261 21.6459C81.2463 21.6539 81.4657 21.6162 81.6698 21.5353C81.8738 21.4544 82.0579 21.3322 82.2097 21.1768C82.2749 21.3025 82.3745 21.4081 82.4976 21.4821C82.6206 21.556 82.7623 21.5953 82.9069 21.5957C83.1117 21.598 83.313 21.5443 83.488 21.4407L83.4363 20.9716ZM82.0332 20.6993C81.8461 20.8816 81.5922 20.9841 81.3274 20.9842C81.2444 20.9873 81.1617 20.9734 81.0846 20.9433C81.0075 20.9132 80.9379 20.8676 80.8802 20.8095C80.8225 20.7513 80.778 20.682 80.7498 20.606C80.7215 20.53 80.7101 20.4491 80.7162 20.3685C80.7162 19.9245 81.2284 19.6355 81.8654 19.6355H82.0332V20.6993Z" fill="white"/>
<path d="M73.3439 20.8167H72.354C72.0527 20.8167 72.0011 20.5863 72.1216 20.4481C72.1897 20.3772 72.2716 20.3202 72.3626 20.2805C72.453 20.2805 72.5434 20.2805 72.6424 20.2805C73.5893 20.2805 74.1875 19.8617 74.1875 18.8774C74.1939 18.6126 74.1318 18.3504 74.0067 18.1151L74.5792 18.2114L74.8848 17.5036L73.4343 17.6125C73.1829 17.5136 72.9135 17.4652 72.6424 17.4701C71.6955 17.4701 71.0973 17.9099 71.0973 18.8732C71.0713 19.13 71.1271 19.3883 71.2573 19.6131C71.3874 19.838 71.5855 20.0183 71.8246 20.1298C71.5061 20.2345 71.1876 20.469 71.1876 20.7873C71.1911 20.8871 71.2182 20.9847 71.2667 21.0725C71.3152 21.1604 71.3839 21.2363 71.4674 21.2941C71.2882 21.3217 71.1242 21.4083 71.0028 21.5394C70.8814 21.6706 70.8099 21.8383 70.8003 22.0146C70.8175 22.6177 71.4932 23.0366 72.7844 23.0366C74.0756 23.0366 74.7298 22.6428 74.7298 21.868C74.747 21.269 74.2908 20.8167 73.3439 20.8167ZM72.6596 17.9517C73.09 17.9517 73.3138 18.203 73.3138 18.8941C73.3138 19.5852 73.0943 19.8366 72.6596 19.8366C72.2249 19.8366 72.0011 19.5852 72.0054 18.8941C72.0097 18.203 72.2249 17.9517 72.6596 17.9517ZM72.8146 22.5172C72.156 22.5172 71.6998 22.3119 71.6998 21.9266C71.7018 21.8222 71.7404 21.7216 71.8093 21.6416C71.8782 21.5615 71.9733 21.5069 72.0786 21.4868H73.2148C73.6796 21.4868 73.8776 21.6753 73.8776 21.9057C73.8819 22.291 73.486 22.5172 72.8146 22.5172Z" fill="white"/>
<path d="M61.2235 20.6871C60.9112 20.8843 60.5456 20.9864 60.1734 20.9803C59.2394 20.9803 58.9683 20.3018 58.9424 19.552H61.3656V19.3426C61.3656 18.5552 61.0944 17.4871 59.8291 17.4829C58.5637 17.4787 58.0171 18.4547 58.0171 19.5143C58.0171 20.6536 58.7014 21.6086 59.9969 21.6086C60.4312 21.6255 60.8602 21.5098 61.2235 21.2777V20.6871ZM59.0113 19.0368C59.0716 18.417 59.2695 17.9939 59.8032 17.9939C60.2336 17.9939 60.4445 18.2913 60.4574 19.0368H59.0113Z" fill="white"/>
<path d="M58.198 16.7037H58.6284L58.6327 16.1885H57.0747V16.7037H57.5309L56.4291 18.9319L55.3488 16.7037H55.8179V16.1885H53.8252V16.7037H54.2814L55.7792 19.6859V21.022H55.2455V21.533H57.2339V21.022H56.7002V19.6188L58.198 16.7037Z" fill="white"/>
</g>
<defs>
<clipPath id="clip0_326_6377">
<rect width="128" height="24" fill="white" transform="translate(0.477539)"/>
</clipPath>
</defs>
</svg>
