<svg width="60" height="60" viewBox="0 0 60 60" fill="current" xmlns="http://www.w3.org/2000/svg">
<circle cx="30" cy="30" r="29.375" stroke="black" stroke-width="1.25"/>
<path d="M30.4481 26.4773C30.4481 30.8459 27.0988 34.3297 23.0365 34.3297C18.9743 34.3297 15.625 30.8459 15.625 26.4773C15.625 22.1086 18.9743 18.6249 23.0365 18.6249C27.0988 18.6249 30.4481 22.1086 30.4481 26.4773Z" fill="black" stroke="black" stroke-width="1.25"/>
<path d="M44.3742 26.4774C44.3742 30.846 41.0249 34.3298 36.9626 34.3298C32.9004 34.3298 29.5511 30.846 29.5511 26.4774C29.5511 22.1088 32.9004 18.625 36.9626 18.625C41.0249 18.625 44.3742 22.1088 44.3742 26.4774Z" fill="black" stroke="black" stroke-width="1.25"/>
<path d="M30.0021 43.2232L19.1436 33.2615L30.0021 23.3693L40.8605 33.2615L30.0021 43.2232Z" fill="black" stroke="black" stroke-width="1.25"/>
</svg>
