<svg width="60" height="60" fill="none" xmlns="http://www.w3.org/2000/svg"><circle cx="30" cy="30" r="29.375" stroke="#fff" stroke-width="1.25"/><path d="M30.448 26.477c0 4.369-3.35 7.853-7.412 7.853-4.062 0-7.411-3.484-7.411-7.853 0-4.368 3.35-7.852 7.412-7.852 4.062 0 7.411 3.484 7.411 7.852Z" fill="#fff" stroke="#fff" stroke-width="1.25"/><path d="M44.374 26.477c0 4.369-3.35 7.853-7.412 7.853-4.062 0-7.411-3.484-7.411-7.853 0-4.368 3.35-7.852 7.411-7.852 4.063 0 7.412 3.484 7.412 7.852Z" fill="#fff" stroke="#fff" stroke-width="1.25"/><path d="m30.002 43.223-10.859-9.962 10.859-9.892 10.858 9.892-10.858 9.962Z" fill="#fff" stroke="#fff" stroke-width="1.25"/></svg>