<svg width="41" height="37" viewBox="0 0 41 37" fill="none" xmlns="http://www.w3.org/2000/svg">
<path d="M1 4.58984H40" stroke="#fff" stroke-width="1.25" stroke-linecap="round"/>
<path d="M1 18.3542H40" stroke="#fff" stroke-width="1.25" stroke-linecap="round"/>
<path d="M1 32.1191H40" stroke="#fff" stroke-width="1.25" stroke-linecap="round"/>
<path d="M34.7865 4.58824C34.7865 6.77707 33.0121 8.55147 30.8232 8.55147C28.6344 8.55147 26.86 6.77707 26.86 4.58824C26.86 2.3994 28.6344 0.625 30.8232 0.625C33.0121 0.625 34.7865 2.3994 34.7865 4.58824Z" fill="white" stroke="white" stroke-width="1.25"/>
<path d="M14.1411 18.3529C14.1411 20.5417 12.3667 22.3161 10.1778 22.3161C7.989 22.3161 6.2146 20.5417 6.2146 18.3529C6.2146 16.164 7.989 14.3896 10.1778 14.3896C12.3667 14.3896 14.1411 16.164 14.1411 18.3529Z" fill="white" stroke="white" stroke-width="1.25"/>
<path d="M34.7865 32.118C34.7865 34.3069 33.0121 36.0813 30.8232 36.0813C28.6344 36.0813 26.86 34.3069 26.86 32.118C26.86 29.9292 28.6344 28.1548 30.8232 28.1548C33.0121 28.1548 34.7865 29.9292 34.7865 32.118Z" fill="white" stroke="white" stroke-width="1.25"/>
</svg>
