<svg width="28" height="34" viewBox="0 0 28 34" fill="none" xmlns="http://www.w3.org/2000/svg">
<path d="M14.0003 32.899L5.21719 24.2911L14.0046 24.2911H14.0046L22.7738 24.2911L14.0003 32.899Z" fill="white" stroke="white"/>
<mask id="path-2-inside-1_2005_718" fill="white">
<path fill-rule="evenodd" clip-rule="evenodd" d="M14 28C21.732 28 28 21.732 28 14C28 6.26801 21.732 0 14 0C6.26801 0 0 6.26801 0 14C0 21.732 6.26801 28 14 28ZM13.9992 19.5992C17.092 19.5992 19.5992 17.092 19.5992 13.9992C19.5992 10.9064 17.092 8.39924 13.9992 8.39924C10.9064 8.39924 8.39924 10.9064 8.39924 13.9992C8.39924 17.092 10.9064 19.5992 13.9992 19.5992Z"/>
</mask>
<path fill-rule="evenodd" clip-rule="evenodd" d="M14 28C21.732 28 28 21.732 28 14C28 6.26801 21.732 0 14 0C6.26801 0 0 6.26801 0 14C0 21.732 6.26801 28 14 28ZM13.9992 19.5992C17.092 19.5992 19.5992 17.092 19.5992 13.9992C19.5992 10.9064 17.092 8.39924 13.9992 8.39924C10.9064 8.39924 8.39924 10.9064 8.39924 13.9992C8.39924 17.092 10.9064 19.5992 13.9992 19.5992Z" fill="white"/>
<path d="M27 14C27 21.1797 21.1797 27 14 27V29C22.2843 29 29 22.2843 29 14H27ZM14 1C21.1797 1 27 6.8203 27 14H29C29 5.71573 22.2843 -1 14 -1V1ZM1 14C1 6.8203 6.8203 1 14 1V-1C5.71573 -1 -1 5.71573 -1 14H1ZM14 27C6.8203 27 1 21.1797 1 14H-1C-1 22.2843 5.71573 29 14 29V27ZM18.5992 13.9992C18.5992 16.5398 16.5398 18.5992 13.9992 18.5992V20.5992C17.6443 20.5992 20.5992 17.6443 20.5992 13.9992H18.5992ZM13.9992 9.39924C16.5398 9.39924 18.5992 11.4587 18.5992 13.9992H20.5992C20.5992 10.3542 17.6443 7.39924 13.9992 7.39924V9.39924ZM9.39924 13.9992C9.39924 11.4587 11.4587 9.39924 13.9992 9.39924V7.39924C10.3542 7.39924 7.39924 10.3542 7.39924 13.9992H9.39924ZM13.9992 18.5992C11.4587 18.5992 9.39924 16.5398 9.39924 13.9992H7.39924C7.39924 17.6443 10.3542 20.5992 13.9992 20.5992V18.5992Z" fill="white" mask="url(#path-2-inside-1_2005_718)"/>
</svg>
