<svg xmlns="http://www.w3.org/2000/svg" xml:space="preserve" width="96.282" height="72.1"><path fill="#FFF" fill-rule="evenodd" d="M46 .281c2.167-.646 4.02-.051 5.958.498 6.278 1.779 12.542 3.61 18.814 5.408 7.551 2.165 15.106 4.308 22.654 6.481 1.752.504 2.857 2.095 2.855 3.961-.003 1.908-1.111 3.467-2.976 4.008-4.191 1.217-8.402 2.369-12.592 3.59-.742.216-.974.166-.808-.667.257-1.29.131-2.583-.292-3.822-.612-1.79-1.521-3.095-3.625-3.666-9.062-2.46-18.069-5.116-27.094-7.711-.452-.13-.856-.188-1.332-.051-9.465 2.722-28.531 8.213-28.759 8.358 1.733.521 20.633 5.954 28.469 8.193.568.162 1.102.206 1.69.034 5.227-1.528 10.462-3.024 15.689-4.55.739-.215 1.15-.307.984.756-.35 2.238.176 4.309 1.591 6.101.538.681.253.851-.416 1.041-5.957 1.688-11.906 3.402-17.862 5.097-.608.173-1.229.12-1.847-.058-8.824-2.539-38.15-10.944-43.985-12.61C1.4 20.182.232 18.854.03 17.141c-.206-1.74.67-3.392 2.22-4.29.355-.206 33.872-9.625 43.75-12.57z" clip-rule="evenodd"/><path fill="#FFF" fill-rule="evenodd" d="M69.177 29.169c4.426 1.418 4.875.792 7.142-.035.043-.016.264-.024.282.164.027.281.324 10.707-.221 15.682-1.02 9.298-5.217 16.851-12.958 22.208-7.276 5.036-15.3 6.226-23.666 3.446-9.322-3.097-15.227-9.763-18.423-18.939-1.121-3.216-1.559-6.538-1.549-9.935.01-3.79.007-7.58-.037-11.369-.01-.871.123-1.189 1.088-.874a78.569 78.569 0 0 0 5.517 1.564c.808.2 1.036.582 1.031 1.382-.023 3.748-.189 7.51.068 11.241.743 10.774 9.581 20.448 21.13 20.147 7.436-.194 13.018-3.873 16.954-10.067 2.353-3.701 3.46-7.792 3.406-12.203-.049-4.07-.013-8.14-.011-12.237.001-.084.166-.2.247-.175zM76.6 22.353c-.014 2.159-1.753 4.014-3.789 4.042-2.084.029-3.933-1.992-3.877-4.236.053-2.131 1.867-3.982 3.88-3.956 2.108.026 3.799 1.881 3.786 4.15z" clip-rule="evenodd"/></svg>