<svg width="128" height="128" viewBox="0 0 128 128" fill="none" xmlns="http://www.w3.org/2000/svg">
<rect width="128" height="128" rx="30" fill="#3A39FF"/>
<path fill-rule="evenodd" clip-rule="evenodd" d="M61.7767 27.2925C64.0274 26.6208 65.952 27.2395 67.9648 27.8103C74.4854 29.66 80.9913 31.5638 87.5056 33.4333C95.3483 35.6844 103.195 37.9125 111.035 40.1719C112.854 40.696 114.002 42.3502 114 44.2904C113.997 46.2742 112.846 47.8952 110.909 48.4577C106.556 49.7231 102.182 50.9209 97.8306 52.1904C97.06 52.415 96.819 52.363 96.9914 51.4969C97.2583 50.1556 97.1275 48.8112 96.6881 47.523C96.0525 45.6618 95.1084 44.3049 92.9231 43.7112C83.511 41.1535 74.1561 38.3919 64.7825 35.6937C64.313 35.5585 63.8934 35.4982 63.399 35.6407C53.5684 38.4709 33.7659 44.1802 33.5291 44.3309C35.3291 44.8726 54.9591 50.5216 63.0978 52.8496C63.6878 53.0181 64.2424 53.0638 64.8531 52.885C70.282 51.2962 75.7193 49.7408 81.1482 48.1541C81.9157 47.9306 82.3426 47.8349 82.1702 48.9402C81.8067 51.2671 82.353 53.4204 83.8226 55.2837C84.3814 55.9917 84.0854 56.1685 83.3906 56.3661C77.2035 58.1212 71.0246 59.9033 64.8386 61.6657C64.2071 61.8455 63.5621 61.7904 62.9202 61.6054C53.7554 58.9654 23.2965 50.2263 17.2361 48.4941C15.4538 47.9846 14.2407 46.6038 14.0309 44.8227C13.817 43.0136 14.7268 41.2959 16.3367 40.3622C16.7054 40.148 51.5171 30.3546 61.7767 27.2925Z" fill="white"/>
<path fill-rule="evenodd" clip-rule="evenodd" d="M85.849 57.3289C90.446 58.8033 90.9123 58.1524 93.2669 57.2925C93.3115 57.2759 93.5411 57.2676 93.5598 57.4631C93.5878 57.7552 93.8963 68.5957 93.3302 73.7684C92.2708 83.436 87.9117 91.2893 79.8717 96.8592C72.3146 102.095 63.9806 103.333 55.2915 100.442C45.6094 97.2221 39.4763 90.2911 36.1568 80.7504C34.9925 77.4065 34.5376 73.9525 34.548 70.4204C34.5584 66.4798 34.5553 62.5391 34.5096 58.5995C34.4992 57.6939 34.6373 57.3632 35.6396 57.6908C37.5292 58.3024 39.4405 58.8449 41.3697 59.3169C42.2089 59.5249 42.4457 59.9221 42.4405 60.7539C42.4166 64.6509 42.2442 68.5624 42.5111 72.4417C43.2828 83.644 52.4623 93.7025 64.4574 93.3896C72.1806 93.1879 77.9783 89.3626 82.0663 82.9224C84.5102 79.0743 85.66 74.8207 85.6039 70.2343C85.553 66.0025 85.5904 61.7707 85.5924 57.5109C85.5935 57.4235 85.7649 57.3029 85.849 57.3289Z" fill="white"/>
<path fill-rule="evenodd" clip-rule="evenodd" d="M93.5588 50.242C93.5442 52.4868 91.738 54.4156 89.6234 54.4447C87.4589 54.4748 85.5385 52.3735 85.5966 50.0403C85.6517 47.8246 87.5358 45.9 89.6265 45.927C91.8159 45.9541 93.5723 47.8828 93.5588 50.242Z" fill="white"/>
</svg>
