<svg width="560" height="103" fill="none" xmlns="http://www.w3.org/2000/svg"><path d="M494.877 11.343c3.034 0 5.982.52 8.842 1.56 2.947 1.04 5.765 2.557 8.452 4.551.433.433.91.867 1.43 1.3.434-.433.91-.867 1.43-1.3 2.688-1.994 5.461-3.51 8.322-4.55 2.947-1.041 5.895-1.561 8.842-1.561 3.034 0 5.981.52 8.842 1.56 2.947 1.04 5.721 2.6 8.321 4.681 2.687 1.994 5.028 4.68 7.022 8.062 2.08 3.38 3.12 7.411 3.12 12.092v46.94c-.52 5.2-3.38 8.017-8.582 8.45-2.427 0-4.55-.78-6.371-2.34-1.733-1.647-2.6-3.684-2.6-6.11v-45.9c0-2.08-.39-3.814-1.171-5.2-.78-1.475-1.647-2.601-2.6-3.382-.954-.866-1.95-1.473-2.991-1.82-1.04-.433-2.08-.65-3.12-.65s-2.081.217-3.121.65c-.953.347-1.907.954-2.86 1.82-.954.78-1.821 1.907-2.601 3.381-.78 1.387-1.214 3.12-1.3 5.201v45.9c-.52 5.2-3.381 8.017-8.582 8.45-2.427 0-4.551-.78-6.371-2.34-1.734-1.647-2.601-3.684-2.601-6.11v-45.9c0-2.08-.39-3.814-1.17-5.2-.78-1.475-1.647-2.601-2.6-3.382-.954-.866-1.951-1.473-2.991-1.82-1.04-.433-2.08-.65-3.121-.65-1.04 0-2.08.217-3.12.65-.954.347-1.907.954-2.861 1.82-.953.78-1.82 1.907-2.6 3.381-.78 1.387-1.214 3.12-1.301 5.201v45.9c-.433 5.2-3.25 8.017-8.451 8.45-2.427 0-4.551-.78-6.372-2.34-1.733-1.647-2.6-3.684-2.6-6.11v-46.94c.173-4.68 1.257-8.712 3.251-12.092 1.993-3.381 4.334-6.068 7.021-8.062 2.687-2.08 5.461-3.64 8.322-4.68 2.947-1.041 5.894-1.561 8.841-1.561ZM270.324 32.276c-3.294.173-6.068 1.43-8.322 3.77a20.982 20.982 0 0 0-4.681 8.062 29.373 29.373 0 0 0-1.43 9.102c0 3.12.433 6.198 1.3 9.232.953 3.034 2.557 5.721 4.811 8.062 2.254 2.253 5.028 3.467 8.322 3.64h42.908c5.461.52 8.452 3.511 8.972 8.972-.087 2.427-.997 4.464-2.731 6.111-1.733 1.56-3.814 2.34-6.241 2.34h-47.459c-6.068-.346-11.053-2.643-14.953-6.89-3.901-4.335-6.718-9.233-8.452-14.694a57.778 57.778 0 0 1-2.47-16.773c0-4.247.476-8.452 1.43-12.612a47.407 47.407 0 0 1 4.421-11.833 31.75 31.75 0 0 1 8.191-9.752c3.468-2.687 7.412-4.074 11.833-4.16H313.232c5.461.52 8.452 3.51 8.972 8.971 0 2.427-.91 4.464-2.731 6.111-1.733 1.56-3.814 2.341-6.241 2.341h-42.908ZM210.902 93.65c-3.468 0-6.372-1.214-8.712-3.64-2.254-2.428-3.381-5.462-3.381-9.102 0-3.641 1.127-6.675 3.381-9.102 2.34-2.427 5.244-3.641 8.712-3.641 3.467 0 6.371 1.214 8.711 3.64 2.341 2.428 3.511 5.462 3.511 9.103 0 3.64-1.17 6.674-3.511 9.101-2.34 2.427-5.244 3.641-8.711 3.641ZM139.258 94.56c-4.508 0-8.972-.52-13.393-1.56a58.204 58.204 0 0 1-12.483-4.552 37.128 37.128 0 0 1-10.532-8.191c-3.033-3.38-4.68-7.412-4.94-12.093v-7.411c0-2.427.866-4.421 2.6-5.981 1.82-1.647 3.944-2.47 6.371-2.47 5.201.433 8.018 3.25 8.452 8.45v3.382c.173 2.687 1.17 4.94 2.99 6.76a24.536 24.536 0 0 0 6.242 4.162 36.286 36.286 0 0 0 7.151 2.34c2.514.52 5.028.78 7.542.78 2.513 0 4.984-.26 7.411-.78 2.514-.52 4.898-1.3 7.151-2.34a21.836 21.836 0 0 0 6.242-4.161c1.907-1.82 2.947-4.074 3.12-6.761V21.225c0-2.427.867-4.42 2.601-5.981 1.82-1.647 3.944-2.47 6.371-2.47 5.201.433 8.062 3.25 8.582 8.451v46.939c-.26 4.681-1.951 8.712-5.071 12.093a37.128 37.128 0 0 1-10.532 8.191A57.609 57.609 0 0 1 152.52 93a56.628 56.628 0 0 1-13.262 1.56ZM41.348 94.56c-4.507 0-8.972-.52-13.392-1.56a58.186 58.186 0 0 1-12.483-4.552 37.12 37.12 0 0 1-10.532-8.191C1.907 76.877.26 72.845 0 68.164v-7.411c0-2.427.867-4.421 2.6-5.981 1.82-1.647 3.945-2.47 6.372-2.47 5.2.433 8.018 3.25 8.451 8.45v3.382c.174 2.687 1.17 4.94 2.991 6.76a24.518 24.518 0 0 0 6.241 4.162 36.298 36.298 0 0 0 7.152 2.34c2.513.52 5.027.78 7.541.78 2.514 0 4.984-.26 7.412-.78 2.513-.52 4.897-1.3 7.151-2.34a21.83 21.83 0 0 0 6.241-4.161c1.907-1.82 2.948-4.074 3.12-6.761V21.225c0-2.427.868-4.42 2.601-5.981 1.82-1.647 3.944-2.47 6.372-2.47 5.2.433 8.061 3.25 8.581 8.451v46.939c-.26 4.681-1.95 8.712-5.07 12.093a37.12 37.12 0 0 1-10.533 8.191A57.596 57.596 0 0 1 54.611 93a56.63 56.63 0 0 1-13.263 1.56Z" fill="#fff"/><path fill-rule="evenodd" clip-rule="evenodd" d="M395.643.402c3.093-.923 5.737-.073 8.503.711 8.959 2.542 17.898 5.158 26.848 7.726 10.775 3.093 21.557 6.154 32.328 9.259 2.5.72 4.077 2.993 4.074 5.658-.004 2.726-1.585 4.953-4.247 5.726-5.98 1.739-11.99 3.384-17.969 5.129-1.059.308-1.39.237-1.153-.953.367-1.843.187-3.69-.417-5.46-.873-2.557-2.17-4.422-5.173-5.237-12.931-3.515-25.785-7.309-38.664-11.016-.645-.186-1.221-.269-1.901-.073-13.506 3.889-40.714 11.733-41.04 11.94 2.473.744 29.444 8.506 40.627 11.704.81.232 1.572.295 2.411.049 7.459-2.183 14.93-4.32 22.389-6.5 1.055-.307 1.641-.439 1.404 1.08-.499 3.197.251 6.156 2.271 8.716.767.973.361 1.215-.594 1.487-8.501 2.411-16.99 4.86-25.49 7.281-.867.247-1.753.172-2.635-.083a65345.09 65345.09 0 0 0-62.768-18.014c-2.449-.7-4.116-2.597-4.404-5.044-.294-2.486.956-4.846 3.168-6.129.506-.294 48.336-13.75 62.432-17.957Z" fill="#fff"/><path fill-rule="evenodd" clip-rule="evenodd" d="M428.718 41.671c6.316 2.026 6.957 1.132 10.192-.05.061-.023.377-.034.402.234.039.402.463 15.296-.315 22.403-1.456 13.283-7.445 24.073-18.492 31.726-10.383 7.195-21.833 8.895-33.772 4.923-13.303-4.424-21.729-13.947-26.29-27.056-1.6-4.594-2.225-9.34-2.211-14.193.015-5.414.01-10.828-.052-16.241-.015-1.244.175-1.699 1.552-1.249 2.597.84 5.223 1.586 7.873 2.235 1.153.285 1.479.831 1.472 1.974-.033 5.354-.27 10.728.097 16.058 1.06 15.392 13.672 29.212 30.153 28.782 10.611-.277 18.577-5.533 24.194-14.381 3.358-5.288 4.937-11.132 4.86-17.433-.07-5.815-.018-11.629-.015-17.482.001-.12.236-.286.352-.25ZM439.311 31.933c-.02 3.084-2.502 5.734-5.407 5.774-2.974.042-5.613-2.846-5.533-6.051.076-3.045 2.664-5.689 5.537-5.652 3.008.037 5.421 2.687 5.403 5.929Z" fill="#fff"/></svg>