<svg xmlns="http://www.w3.org/2000/svg" width="1640" height="366" fill="none"><g fill-rule="evenodd" clip-path="url(#a)" clip-rule="evenodd"><path fill="#000" d="M1155.77 1.425c10.99-3.28 20.38-.26 30.2 2.527 31.82 9.031 63.57 18.326 95.36 27.453 38.27 10.99 76.56 21.869 114.82 32.9 8.88 2.558 14.48 10.634 14.47 20.107-.01 9.685-5.63 17.599-15.08 20.345-21.24 6.178-42.59 12.026-63.82 18.224-3.77 1.097-4.94.843-4.1-3.386 1.3-6.548.66-13.112-1.48-19.401-3.1-9.087-7.71-15.711-18.37-18.61-45.93-12.488-91.58-25.97-137.33-39.143-2.29-.66-4.34-.955-6.75-.259C1115.72 56 1019.08 83.874 1017.93 84.61c8.78 2.644 104.58 30.224 144.29 41.59 2.88.822 5.59 1.045 8.57.172 26.49-7.756 53.02-15.351 79.52-23.097 3.74-1.091 5.83-1.558 4.98 3.838-1.77 11.36.9 21.873 8.07 30.97 2.72 3.457 1.28 4.32-2.11 5.285-30.19 8.568-60.35 17.269-90.53 25.873-3.09.879-6.23.61-9.36-.294-44.73-12.889-193.366-55.555-222.94-64.012-8.698-2.487-14.618-9.229-15.642-17.924-1.044-8.833 3.396-17.22 11.252-21.778 1.8-1.045 171.68-48.859 221.74-63.809Z"/><path fill="#000" d="M1273.24 148.07c22.44 7.198 24.71 4.02 36.2-.178.22-.081 1.34-.121 1.43.833.14 1.426 1.65 54.352-1.12 79.606-5.17 47.199-26.44 85.541-65.67 112.734-36.88 25.564-77.55 31.605-119.95 17.493-47.25-15.721-77.18-49.56-93.38-96.14-5.68-16.325-7.9-33.188-7.85-50.432.05-19.24.03-38.479-.19-57.713-.05-4.421.62-6.035 5.52-4.436a396.897 396.897 0 0 0 27.96 7.939c4.09 1.015 5.25 2.954 5.22 7.015-.11 19.026-.95 38.123.35 57.063 3.76 54.692 48.56 103.8 107.1 102.272 37.68-.985 65.98-19.661 85.93-51.103 11.92-18.788 17.53-39.555 17.26-61.946-.25-20.661-.07-41.321-.06-62.119.01-.426.84-1.015 1.25-.888Z"/><path fill="#010101" d="M1310.87 113.47c-.07 10.96-8.89 20.376-19.21 20.518-10.56.148-19.93-10.112-19.65-21.503.27-10.817 9.47-20.213 19.67-20.082 10.68.132 19.25 9.549 19.19 21.067Z"/></g><path fill="#000" d="M1450.02 90.637a75.25 75.25 0 0 1 25.91 4.572c8.64 3.048 16.89 7.493 24.77 13.334 1.27 1.27 2.66 2.54 4.19 3.81 1.27-1.27 2.66-2.54 4.19-3.81 7.87-5.841 16-10.286 24.38-13.334 8.64-3.048 17.27-4.572 25.91-4.572 8.89 0 17.52 1.524 25.9 4.572 8.64 3.048 16.77 7.62 24.39 13.715 7.87 5.842 14.73 13.716 20.57 23.621 6.1 9.906 9.14 21.717 9.14 35.432v137.535c-1.52 15.24-9.9 23.494-25.14 24.764-7.11 0-13.34-2.285-18.67-6.857-5.08-4.826-7.62-10.795-7.62-17.907V171.025c0-6.096-1.14-11.176-3.43-15.239-2.28-4.318-4.82-7.62-7.62-9.906-2.79-2.54-5.71-4.318-8.76-5.334-3.05-1.27-6.1-1.905-9.14-1.905-3.05 0-6.1.635-9.15 1.905-2.79 1.016-5.59 2.794-8.38 5.334-2.79 2.286-5.33 5.588-7.62 9.906-2.28 4.063-3.55 9.143-3.81 15.239v134.487c-1.52 15.24-9.9 23.494-25.14 24.764-7.12 0-13.34-2.285-18.67-6.857-5.08-4.826-7.62-10.795-7.62-17.907V171.025c0-6.096-1.14-11.176-3.43-15.239-2.29-4.318-4.83-7.62-7.62-9.906-2.79-2.54-5.72-4.318-8.76-5.334-3.05-1.27-6.1-1.905-9.15-1.905-3.04 0-6.09.635-9.14 1.905-2.79 1.016-5.59 2.794-8.38 5.334-2.8 2.286-5.34 5.588-7.62 9.906-2.29 4.063-3.56 9.143-3.81 15.239v134.487c-1.27 15.24-9.53 23.494-24.77 24.764-7.11 0-13.33-2.285-18.66-6.857-5.08-4.826-7.62-10.795-7.62-17.907V167.977c.5-13.715 3.68-25.526 9.52-35.432 5.84-9.905 12.7-17.779 20.57-23.621 7.88-6.095 16.01-10.667 24.39-13.715 8.63-3.048 17.27-4.572 25.9-4.572ZM792.065 151.976c-9.652.508-17.779 4.191-24.383 11.049-6.35 6.858-10.922 14.731-13.716 23.621-2.793 8.635-4.19 17.525-4.19 26.669 0 9.143 1.27 18.16 3.809 27.05 2.794 8.889 7.493 16.763 14.097 23.621 6.604 6.603 14.731 10.159 24.383 10.667H917.79c16.001 1.524 24.764 10.287 26.288 26.288-.254 7.112-2.921 13.081-8.001 17.906-5.08 4.572-11.176 6.858-18.287 6.858H778.73c-17.779-1.016-32.383-7.747-43.813-20.192-11.429-12.7-19.684-27.05-24.764-43.051-4.826-16.002-7.238-32.384-7.238-49.147 0-12.446 1.396-24.764 4.19-36.956 2.794-12.191 7.112-23.748 12.954-34.669 6.096-11.176 14.096-20.701 24.002-28.574 10.159-7.874 21.716-11.938 34.669-12.192h139.06c16.001 1.524 24.764 10.287 26.288 26.288 0 7.112-2.667 13.081-8.001 17.907-5.08 4.571-11.176 6.857-18.287 6.857H792.065ZM617.955 331.8c-10.16 0-18.668-3.555-25.526-10.667-6.604-7.112-9.906-16.002-9.906-26.669 0-10.668 3.302-19.557 9.906-26.669 6.858-7.112 15.366-10.668 25.526-10.668s18.668 3.556 25.526 10.668c6.858 7.112 10.287 16.001 10.287 26.669 0 10.667-3.429 19.557-10.287 26.669-6.858 7.112-15.366 10.667-25.526 10.667ZM408.034 334.469a170.761 170.761 0 0 1-39.241-4.572 170.552 170.552 0 0 1-36.575-13.334c-11.683-6.096-21.97-14.097-30.859-24.002-8.89-9.906-13.716-21.717-14.478-35.432v-21.716c0-7.112 2.54-12.954 7.62-17.525 5.334-4.826 11.557-7.239 18.668-7.239 15.24 1.27 23.494 9.524 24.764 24.764v9.905c.508 7.874 3.429 14.478 8.763 19.812 5.588 5.079 11.683 9.143 18.287 12.191 6.858 3.048 13.843 5.334 20.954 6.858 7.366 1.524 14.732 2.286 22.097 2.286 7.366 0 14.605-.762 21.717-2.286 7.365-1.524 14.35-3.81 20.954-6.858 6.857-3.048 12.953-7.112 18.287-12.191 5.588-5.334 8.636-11.938 9.144-19.812V119.594c0-7.112 2.539-12.954 7.619-17.526 5.334-4.825 11.557-7.238 18.668-7.238 15.24 1.27 23.621 9.524 25.145 24.764v137.535c-.762 13.715-5.714 25.526-14.858 35.432-8.89 9.905-19.176 17.906-30.86 24.002-11.683 5.841-24.002 10.286-36.955 13.334-12.7 3.048-25.653 4.572-38.861 4.572ZM121.153 334.469a170.767 170.767 0 0 1-39.241-4.572 170.531 170.531 0 0 1-36.575-13.334c-11.683-6.096-21.97-14.097-30.86-24.002C5.587 282.655.762 270.844 0 257.129v-21.716c0-7.112 2.54-12.954 7.62-17.525 5.333-4.826 11.556-7.239 18.668-7.239 15.24 1.27 23.494 9.524 24.764 24.764v9.905c.508 7.874 3.429 14.478 8.763 19.812 5.587 5.079 11.683 9.143 18.287 12.191 6.858 3.048 13.842 5.334 20.954 6.858 7.366 1.524 14.731 2.286 22.097 2.286 7.366 0 14.604-.762 21.716-2.286 7.366-1.524 14.351-3.81 20.954-6.858 6.858-3.048 12.954-7.112 18.288-12.191 5.587-5.334 8.635-11.938 9.143-19.812V119.594c0-7.112 2.54-12.954 7.62-17.526 5.334-4.825 11.556-7.238 18.668-7.238 15.239 1.27 23.621 9.524 25.145 24.764v137.535c-.762 13.715-5.715 25.526-14.858 35.432-8.89 9.905-19.177 17.906-30.86 24.002-11.684 5.841-24.002 10.286-36.956 13.334-12.699 3.048-25.652 4.572-38.86 4.572Z"/><defs><clipPath id="a"><path fill="#fff" d="M922.625 0h488v366h-488z"/></clipPath></defs></svg>