<svg width="28" height="28" viewBox="0 0 28 28" fill="none" xmlns="http://www.w3.org/2000/svg">
<path d="M13.986 0C6.258 0 0 6.272 0 14C0 21.728 6.258 28 13.986 28C21.728 28 28 21.728 28 14C28 6.272 21.728 0 13.986 0ZM23.688 8.4H19.558C19.11 6.65 18.466 4.97 17.626 3.416C20.202 4.298 22.344 6.09 23.688 8.4ZM14 2.856C15.162 4.536 16.072 6.398 16.674 8.4H11.326C11.928 6.398 12.838 4.536 14 2.856ZM3.164 16.8C2.94 15.904 2.8 14.966 2.8 14C2.8 13.034 2.94 12.096 3.164 11.2H7.896C7.784 12.124 7.7 13.048 7.7 14C7.7 14.952 7.784 15.876 7.896 16.8H3.164ZM4.312 19.6H8.442C8.89 21.35 9.534 23.03 10.374 24.584C7.798 23.702 5.656 21.924 4.312 19.6ZM8.442 8.4H4.312C5.656 6.076 7.798 4.298 10.374 3.416C9.534 4.97 8.89 6.65 8.442 8.4ZM14 25.144C12.838 23.464 11.928 21.602 11.326 19.6H16.674C16.072 21.602 15.162 23.464 14 25.144ZM17.276 16.8H10.724C10.598 15.876 10.5 14.952 10.5 14C10.5 13.048 10.598 12.11 10.724 11.2H17.276C17.402 12.11 17.5 13.048 17.5 14C17.5 14.952 17.402 15.876 17.276 16.8ZM17.626 24.584C18.466 23.03 19.11 21.35 19.558 19.6H23.688C22.344 21.91 20.202 23.702 17.626 24.584ZM20.104 16.8C20.216 15.876 20.3 14.952 20.3 14C20.3 13.048 20.216 12.124 20.104 11.2H24.836C25.06 12.096 25.2 13.034 25.2 14C25.2 14.966 25.06 15.904 24.836 16.8H20.104Z" fill="white"/>
</svg>
