<svg width="154" height="119" viewBox="0 0 154 119" fill="none" xmlns="http://www.w3.org/2000/svg">
<path d="M3 22.7333H47.4V3H106.6V22.7333H151V116.467H3V22.7333Z" stroke="#C4C4C4" stroke-width="5" stroke-linejoin="round"/>
<path d="M113.967 67.1337C113.967 87.5498 97.416 104.1 76.9999 104.1C56.5837 104.1 40.0332 87.5498 40.0332 67.1337C40.0332 46.7175 56.5837 30.167 76.9999 30.167C97.416 30.167 113.967 46.7175 113.967 67.1337Z" stroke="#C4C4C4" stroke-width="5"/>
<path d="M94.2333 67.1332C94.2333 76.6509 86.5176 84.3666 76.9999 84.3666C67.4822 84.3666 59.7666 76.6509 59.7666 67.1332C59.7666 57.6155 67.4822 49.8999 76.9999 49.8999C86.5176 49.8999 94.2333 57.6155 94.2333 67.1332Z" stroke="#C4C4C4" stroke-width="5"/>
<path d="M126.334 42.4663L131.267 42.4663" stroke="#C4C4C4" stroke-width="5" stroke-linecap="round"/>
</svg>
