<svg width="56" height="52" viewBox="0 0 56 52" fill="none" xmlns="http://www.w3.org/2000/svg">
<path id="Vector" d="M21.0905 12.0236C18.8838 12.1397 17.0256 12.9817 15.5158 14.5496C14.064 16.1175 13.0188 17.9177 12.38 19.9501C11.7413 21.9245 11.4219 23.9569 11.4219 26.0474C11.4219 28.1379 11.7122 30.1994 12.2929 32.2318C12.9317 34.2643 14.006 36.0644 15.5158 37.6323C17.0256 39.1421 18.8838 39.9551 21.0905 40.0712H49.835C53.4934 40.4197 55.4968 42.4231 55.8452 46.0815C55.7871 47.7074 55.1774 49.0721 54.016 50.1754C52.8546 51.2206 51.4609 51.7433 49.835 51.7433H22.0486H18.0418C13.9769 51.511 10.6379 49.9721 8.02479 47.1267C5.41165 44.2232 3.52439 40.9423 2.36299 37.2839C1.25967 33.6255 0.708008 29.88 0.708008 26.0474C0.708008 23.202 1.02739 20.3856 1.66616 17.5983C2.30492 14.8109 3.29211 12.1687 4.62771 9.67175C6.02139 7.11668 7.85058 4.93907 10.1153 3.13891C12.4381 1.33875 15.0803 0.409632 18.0418 0.351562H19.6968H49.835C53.4934 0.699981 55.4968 2.70339 55.8452 6.36178C55.8452 7.98773 55.2355 9.35237 54.016 10.4557C52.8546 11.5009 51.4609 12.0236 49.835 12.0236H21.0905Z" fill="white"/>
</svg>
