<svg width="57" height="56" viewBox="0 0 57 56" fill="none" xmlns="http://www.w3.org/2000/svg">
<path d="M28.2891 55.7468C25.2695 55.7468 22.2789 55.3984 19.3173 54.7015C16.4138 54.0047 13.6265 52.9885 10.9553 51.6529C8.28408 50.2592 5.93226 48.43 3.89982 46.1653C1.86738 43.9006 0.764053 41.2003 0.589844 38.0646V34.4062V33.0996C0.589844 31.4736 1.17054 30.138 2.33194 29.0928C3.5514 27.9895 4.97411 27.4378 6.60006 27.4378C10.0842 27.7281 11.9715 29.6154 12.2619 33.0996V35.3643C12.378 37.1645 13.0458 38.6743 14.2653 39.8938C15.5428 41.0551 16.9365 41.9843 18.4463 42.6811C20.0142 43.3779 21.6111 43.9006 23.237 44.249C24.9211 44.5974 26.6051 44.7716 28.2891 44.7716C29.9731 44.7716 31.6281 44.5974 33.2541 44.249C34.9381 43.9006 36.535 43.3779 38.0448 42.6811C39.6127 41.9843 41.0064 41.0551 42.2258 39.8938C43.5034 38.6743 44.2002 37.1645 44.3163 35.3643V6.61981C44.3163 4.99385 44.897 3.65825 46.0584 2.61299C47.2779 1.50967 48.7006 0.958008 50.3266 0.958008C53.8107 1.24836 55.727 3.13562 56.0755 6.61981V34.4062V38.0646C55.9012 41.2003 54.7689 43.9006 52.6784 46.1653C50.6459 48.43 48.2941 50.2592 45.6229 51.6529C42.9517 52.9885 40.1353 54.0047 37.1738 54.7015C34.2703 55.3984 31.3087 55.7468 28.2891 55.7468Z" fill="white"/>
</svg>
