<svg width="93" height="69" viewBox="0 0 93 69" fill="none" xmlns="http://www.w3.org/2000/svg">
<g id="Group 379">
<path id="Vector" fill-rule="evenodd" clip-rule="evenodd" d="M44.0425 0.269245C46.1141 -0.348982 47.8855 0.220438 49.7382 0.745835C55.7398 2.44835 61.728 4.20063 67.7239 5.92133C74.9424 7.99325 82.1648 10.0441 89.3805 12.1237C91.0554 12.606 92.1117 14.1286 92.1098 15.9144C92.1069 17.7404 91.0477 19.2323 89.2648 19.7501C85.2583 20.9148 81.2327 22.0172 77.2272 23.1857C76.5179 23.3925 76.2961 23.3446 76.4548 22.5474C76.7005 21.3129 76.58 20.0755 76.1756 18.8897C75.5906 17.1767 74.7216 15.9278 72.7102 15.3813C64.0472 13.0271 55.4367 10.4853 46.8091 8.00186C46.377 7.87745 45.9907 7.82195 45.5357 7.95306C36.4874 10.558 18.2608 15.813 18.0428 15.9517C19.6995 16.4503 37.7674 21.6497 45.2585 23.7925C45.8015 23.9475 46.312 23.9896 46.8741 23.825C51.8709 22.3627 56.8755 20.931 61.8723 19.4706C62.5788 19.2649 62.9717 19.1768 62.813 20.1941C62.4784 22.3359 62.9813 24.3179 64.334 26.0328C64.8483 26.6846 64.5758 26.8473 63.9363 27.0291C58.2415 28.6445 52.5545 30.2848 46.8607 31.9069C46.2794 32.0725 45.6858 32.0218 45.095 31.8514C36.6595 29.4216 8.62458 21.378 3.04647 19.7836C1.40602 19.3146 0.289444 18.0437 0.0963369 16.4044C-0.100594 14.7392 0.73684 13.1582 2.2186 12.2988C2.55797 12.1017 34.5993 3.08763 44.0425 0.269245Z" fill="white"/>
<path id="Vector_2" fill-rule="evenodd" clip-rule="evenodd" d="M66.1991 27.9157C70.4302 29.2728 70.8595 28.6737 73.0267 27.8822C73.0678 27.8669 73.279 27.8593 73.2963 28.0392C73.3221 28.3081 73.606 38.2859 73.085 43.047C72.1099 51.9452 68.0977 59.1735 60.6975 64.3002C53.7418 69.1197 46.0711 70.2585 38.0734 67.598C29.1618 64.6342 23.5168 58.2548 20.4615 49.4733C19.3898 46.3955 18.9711 43.2164 18.9807 39.9654C18.9902 36.3384 18.9874 32.7113 18.9453 29.0852C18.9357 28.2516 19.0629 27.9473 19.9854 28.2488C21.7247 28.8118 23.4839 29.311 25.2595 29.7455C26.0319 29.9369 26.2499 30.3025 26.2451 31.0681C26.2231 34.655 26.0644 38.2552 26.3101 41.8258C27.0204 52.1366 35.4693 61.3947 46.5099 61.1067C53.6185 60.921 58.9547 57.4002 62.7175 51.4725C64.9669 47.9306 66.0251 44.0155 65.9735 39.7941C65.9267 35.8991 65.9611 32.0041 65.963 28.0832C65.9639 28.0028 66.1217 27.8918 66.1991 27.9157Z" fill="white"/>
<path id="Vector_3" fill-rule="evenodd" clip-rule="evenodd" d="M73.2955 21.3918C73.2821 23.4579 71.6197 25.2332 69.6733 25.26C67.6811 25.2877 65.9135 23.3536 65.967 21.2061C66.0177 19.1667 67.7518 17.3953 69.6762 17.4202C71.6914 17.4451 73.3079 19.2203 73.2955 21.3918Z" fill="white"/>
</g>
</svg>
