<svg width="62" height="55" viewBox="0 0 62 55" fill="none" xmlns="http://www.w3.org/2000/svg">
<path id="Vector" d="M18.5197 0C20.5521 0 22.5265 0.348418 24.4428 1.04525C26.4172 1.74209 28.3044 2.75831 30.1046 4.09391C30.3949 4.38426 30.7143 4.67461 31.0627 4.96496C31.3531 4.67461 31.6725 4.38426 32.0209 4.09391C33.8211 2.75831 35.6793 1.74209 37.5956 1.04525C39.57 0.348418 41.5443 0 43.5187 0C45.5511 0 47.5255 0.348418 49.4418 1.04525C51.4162 1.74209 53.2744 2.78735 55.0165 4.18102C56.8167 5.51662 58.3845 7.31678 59.7201 9.5815C61.1138 11.8462 61.8107 14.5465 61.8107 17.6822V49.127C61.4622 52.6112 59.5459 54.4984 56.0618 54.7888C54.4358 54.7888 53.0131 54.2662 51.7936 53.2209C50.6322 52.1176 50.0515 50.7529 50.0515 49.127V18.3791C50.0515 16.9854 49.7902 15.824 49.2676 14.8949C48.745 13.9077 48.1643 13.1528 47.5255 12.6302C46.8867 12.0495 46.2189 11.643 45.5221 11.4107C44.8253 11.1204 44.1284 10.9752 43.4316 10.9752C42.7348 10.9752 42.0379 11.1204 41.3411 11.4107C40.7023 11.643 40.0636 12.0495 39.4248 12.6302C38.786 13.1528 38.2053 13.9077 37.6827 14.8949C37.1601 15.824 36.8697 16.9854 36.8116 18.3791V49.127C36.4632 52.6112 34.5469 54.4984 31.0627 54.7888C29.4368 54.7888 28.0141 54.2662 26.7946 53.2209C25.6332 52.1176 25.0525 50.7529 25.0525 49.127V18.3791C25.0525 16.9854 24.7912 15.824 24.2686 14.8949C23.746 13.9077 23.1653 13.1528 22.5265 12.6302C21.8877 12.0495 21.2199 11.643 20.5231 11.4107C19.8263 11.1204 19.1294 10.9752 18.4326 10.9752C17.7357 10.9752 17.0389 11.1204 16.3421 11.4107C15.7033 11.643 15.0645 12.0495 14.4258 12.6302C13.787 13.1528 13.2063 13.9077 12.6837 14.8949C12.1611 15.824 11.8707 16.9854 11.8126 18.3791V49.127C11.5223 52.6112 9.63502 54.4984 6.15084 54.7888C4.52489 54.7888 3.10218 54.2662 1.88272 53.2209C0.721322 52.1176 0.140625 50.7529 0.140625 49.127V17.6822C0.256764 14.5465 0.982636 11.8462 2.31824 9.5815C3.65384 7.31678 5.22172 5.51662 7.02189 4.18102C8.82205 2.78735 10.6803 1.74209 12.5966 1.04525C14.5709 0.348418 16.5453 0 18.5197 0Z" fill="white"/>
</svg>
